<svg fill="#FFFFFF" xmlns="http://www.w3.org/2000/svg"  viewBox="0 0 48 48" width="48px" height="48px"><path d="M 23.5 4 C 17.561 4 12.627297 7.4632344 12.029297 12.240234 C 11.961297 12.781234 12.348672 13.278469 12.888672 13.355469 L 17.386719 13.990234 C 17.886719 14.061234 18.343469 13.741859 18.480469 13.255859 C 18.963469 11.540859 20.335 10 22.75 10 C 25.5 10 27 11.57 27 13.5 L 27 16 C 13 16 10 22.029 10 27 C 10 31.97 14.029 36 19 36 C 25.5 36 28 32 28 32 C 28.075 31.925 28.176109 31.802203 28.287109 31.658203 C 28.841109 32.805203 30.131156 34.711328 32.410156 35.861328 C 32.874156 36.095328 33.437453 36.025969 33.814453 35.667969 L 37.681641 32 C 38.128641 31.583 38.100094 30.864375 37.621094 30.484375 C 37.290094 30.221375 36.565 29.606922 36.5 29.544922 C 35 28.104922 35 26.848 35 24.5 L 35 13.5 C 35 7.5 30.987 4 23.5 4 z M 27 21 L 27 25.828125 C 27 27.917125 25.472578 29.782469 23.392578 29.980469 C 21.006578 30.208469 19 28.339 19 26 C 19 23.791 20.5 21 27 21 z M 41.5 35 C 38.879 35 37.288656 36.039984 37.222656 36.083984 C 37.032656 36.210984 36.952297 36.451969 37.029297 36.667969 C 37.106297 36.883969 37.328875 37.005047 37.546875 36.998047 C 37.578875 36.996047 40.520234 36.735563 42.490234 37.351562 C 42.363234 39.628563 41.066734 42.249344 41.052734 42.277344 C 40.951734 42.480344 40.999922 42.725953 41.169922 42.876953 C 41.262922 42.958953 41.381 43 41.5 43 C 41.596 43 41.693344 42.973016 41.777344 42.916016 C 44.963344 40.792016 45 36.194 45 36 C 45 35.867 44.946516 35.740484 44.853516 35.646484 C 44.701516 35.495484 44.012 35 41.5 35 z M 3.4667969 35.001953 C 3.3461719 35.010203 3.2276719 35.061297 3.1386719 35.154297 C 2.9596719 35.342297 2.9520469 35.633125 3.1230469 35.828125 C 3.1940469 35.910125 10.424 44 23.5 44 C 34.554 44 40.569312 39.093766 40.820312 38.884766 C 41.015313 38.722766 41.056969 38.438562 40.917969 38.226562 C 40.779969 38.013562 40.502391 37.936734 40.275391 38.052734 C 40.216391 38.081734 34.257 41 23.5 41 C 11.338 41 3.8865 35.168375 3.8125 35.109375 C 3.711 35.028375 3.5874219 34.993703 3.4667969 35.001953 z"/></svg>