<?xml version="1.0" encoding="utf-8"?>
<!-- Generator: Adobe Illustrator 25.4.1, SVG Export Plug-In . SVG Version: 6.00 Build 0)  -->
<svg version="1.1" id="Layer_1" xmlns="http://www.w3.org/2000/svg" xmlns:xlink="http://www.w3.org/1999/xlink" x="0px" y="0px"
	 viewBox="0 0 32.19 39.81" style="enable-background:new 0 0 32.19 39.81;" xml:space="preserve">
<style type="text/css">
	.st0{fill:#black;}
	.st1{fill:#black;}
</style>
<g>
	<rect x="-993.61" y="672.77" class="st0" width="448.86" height="102.86"/>
	<path class="st1" d="M-547.33,675.34v97.71h-443.71v-97.71H-547.33 M-542.18,670.2h-454v108h454V670.2L-542.18,670.2z"/>
</g>
<g>
	<text transform="matrix(1 0 0 1 -875.4598 714.3147)"><tspan x="0" y="0" style="fill:#010101; font-family:'Abys-Regular'; font-size:39.5088px;">ABYS FONT</tspan><tspan x="0" y="47.41" style="fill:#010101; font-family:'Abys-Regular'; font-size:39.5088px;">size: 40.3993</tspan></text>
</g>
<g>
	<path id="XQ4JRi.tif_00000076567366907151420080000016070175215294124936_" class="st0" d="M21.37,30.28c-0.01,0-0.02,0-0.03,0
		c-0.07-0.03-0.1-0.09-0.14-0.15c-0.38-0.54-0.72-1.11-1.02-1.7c-0.04-0.09-0.03-0.12,0.06-0.16c0.54-0.21,1.07-0.46,1.57-0.75
		c0.01-0.01,0.03-0.02,0.04-0.02c0.07-0.05,0.07-0.08,0.01-0.13c-0.07-0.06-0.14-0.11-0.21-0.17c-0.06-0.05-0.13-0.05-0.2-0.01
		c-0.47,0.22-0.96,0.41-1.45,0.57c-0.82,0.26-1.65,0.45-2.51,0.54c-0.29,0.03-0.59,0.05-0.88,0.07c-0.23,0.01-0.46,0.01-0.7,0.01
		c-0.54-0.01-1.08-0.05-1.62-0.13c-0.8-0.12-1.58-0.31-2.35-0.58c-0.4-0.14-0.8-0.3-1.19-0.48c-0.09-0.04-0.16-0.04-0.24,0.03
		c-0.05,0.04-0.1,0.08-0.15,0.12c-0.1,0.08-0.1,0.11,0.02,0.17c0.09,0.05,0.17,0.1,0.26,0.15c0.42,0.23,0.85,0.43,1.3,0.6
		c0.11,0.04,0.12,0.07,0.07,0.17c-0.3,0.6-0.65,1.17-1.03,1.72c-0.04,0.05-0.08,0.1-0.14,0.12c-0.01,0-0.01,0-0.02,0
		c-0.58-0.11-1.12-0.36-1.67-0.58c-0.38-0.15-0.76-0.33-1.12-0.52c-0.77-0.39-1.51-0.83-2.21-1.33c-0.13-0.09-0.25-0.19-0.38-0.27
		c-0.1-0.07-0.13-0.15-0.14-0.27c-0.01-0.29-0.02-0.59-0.02-0.88c0-0.02,0.01-2.08,0.01-2.25c0.01-0.42,0.06-0.85,0.12-1.27
		c0.09-0.68,0.23-1.36,0.4-2.03c0.26-1.02,0.61-2,1.04-2.96c0.46-1.03,1.01-2.01,1.62-2.95c0.06-0.1,0.15-0.15,0.25-0.2
		c0.42-0.19,0.85-0.37,1.29-0.53c0.58-0.21,1.18-0.4,1.78-0.55c0.29-0.07,0.59-0.15,0.89-0.19c0.1-0.01,0.21-0.02,0.31-0.03
		c0.08-0.01,0.13,0.03,0.17,0.1c0.12,0.23,0.24,0.47,0.35,0.7c0.04,0.08,0.07,0.16,0.11,0.24c0.03,0.07,0.08,0.09,0.16,0.08
		c0.27-0.04,0.55-0.07,0.82-0.1c0.18-0.02,0.37-0.03,0.55-0.04c0.35-0.02,0.7-0.04,1.05-0.03c0.42,0.01,0.84,0.02,1.25,0.06
		c0.32,0.03,0.64,0.06,0.97,0.1c0.12,0.02,0.15,0,0.2-0.11c0.14-0.3,0.27-0.61,0.43-0.9c0.06-0.11,0.08-0.12,0.2-0.11
		c0.61,0.05,1.19,0.22,1.78,0.38c0.86,0.24,1.68,0.55,2.49,0.92c0.07,0.03,0.14,0.07,0.19,0.15c0.31,0.48,0.61,0.96,0.88,1.46
		c0.29,0.53,0.56,1.07,0.81,1.62c0.25,0.56,0.47,1.12,0.65,1.7c0.35,1.06,0.6,2.15,0.75,3.26c0.05,0.34,0.09,0.68,0.1,1.02
		c0.01,0.41,0.03,0.83,0.02,1.24c0,0.02,0,0.57,0,0.6c0.01,0.36-0.01,0.71-0.02,1.07c0,0.16-0.01,0.32-0.02,0.49
		c-0.01,0.07-0.04,0.12-0.1,0.17c-0.31,0.23-0.62,0.45-0.94,0.65c-0.61,0.39-1.23,0.75-1.88,1.07c-0.74,0.37-1.51,0.68-2.3,0.94
		C21.57,30.25,21.46,30.25,21.37,30.28z M5.28,24.69c-0.01,0-0.01,0-0.02,0C5.27,24.76,5.28,24.76,5.28,24.69z M5.27,26.38
		c0.01,0,0.01,0,0.02,0C5.28,26.3,5.27,26.3,5.27,26.38z M17.78,23.13c0.09,0.53,0.32,0.99,0.73,1.34c0.57,0.48,1.21,0.6,1.9,0.3
		c0.47-0.21,0.79-0.57,1-1.03c0.22-0.47,0.27-0.96,0.19-1.47c-0.09-0.53-0.33-0.99-0.74-1.34c-0.37-0.31-0.8-0.47-1.28-0.44
		c-0.51,0.03-0.93,0.26-1.26,0.64c-0.4,0.45-0.57,0.98-0.58,1.58C17.75,22.85,17.76,22.99,17.78,23.13z M14.41,22.26
		c-0.09-0.52-0.33-0.97-0.73-1.32c-0.41-0.35-0.88-0.5-1.42-0.43c-0.46,0.06-0.84,0.29-1.14,0.64c-0.36,0.42-0.53,0.91-0.56,1.46
		c-0.01,0.25,0.02,0.49,0.08,0.73c0.12,0.45,0.34,0.85,0.7,1.15c0.52,0.44,1.11,0.57,1.76,0.34c0.43-0.15,0.74-0.44,0.98-0.82
		c0.25-0.4,0.36-0.83,0.36-1.36C14.45,22.55,14.44,22.4,14.41,22.26z"/>
</g>
</svg>
